<svg width="44" height="44" viewBox="0 0 44 44" fill="none" xmlns="http://www.w3.org/2000/svg">
<rect x="0.5" y="0.5" width="43" height="43" rx="21.5" fill="white"/>
<rect x="0.5" y="0.5" width="43" height="43" rx="21.5" stroke="#D0D5DD"/>
<path d="M25 26.5V29C25 29.9319 25 30.3978 24.8478 30.7654C24.6448 31.2554 24.2554 31.6448 23.7654 31.8478C23.3978 32 22.9319 32 22 32C21.0681 32 20.6022 32 20.2346 31.8478C19.7446 31.6448 19.3552 31.2554 19.1522 30.7654C19 30.3978 19 29.9319 19 29V26.5M25 26.5C27.6489 25.3427 29.5 22.5755 29.5 19.5C29.5 15.3579 26.1421 12 22 12C17.8579 12 14.5 15.3579 14.5 19.5C14.5 22.5755 16.3511 25.3427 19 26.5M25 26.5H19" stroke="#111827" stroke-width="2" stroke-linecap="round" stroke-linejoin="round"/>
</svg>
