 <svg width="45" height="48" viewBox="0 0 45 48" fill="none" xmlns="http://www.w3.org/2000/svg">
<mask id="mask0_4678_1161" style="mask-type:alpha" maskUnits="userSpaceOnUse" x="23" y="42" width="6" height="6">
<path fill-rule="evenodd" clip-rule="evenodd" d="M28.1974 47.7252H23.1748V42.6653H28.1974V47.7252Z" fill="white"/>
</mask>
<g mask="url(#mask0_4678_1161)">
<path fill-rule="evenodd" clip-rule="evenodd" d="M28.2017 45.2169C28.2017 46.6051 27.0906 47.7693 25.7127 47.7693C24.3348 47.7693 23.2236 46.6498 23.2236 45.2169C23.2236 43.8288 24.3348 42.6646 25.7127 42.6646C27.0461 42.6646 28.2017 43.784 28.2017 45.2169Z" fill="#E8292B"/>
</g>
<mask id="mask1_4678_1161" style="mask-type:alpha" maskUnits="userSpaceOnUse" x="0" y="12" width="5" height="6">
<path fill-rule="evenodd" clip-rule="evenodd" d="M0 17.1865V12.0818H4.97811V17.1865H0Z" fill="white"/>
</mask>
<g mask="url(#mask1_4678_1161)">
<path fill-rule="evenodd" clip-rule="evenodd" d="M4.97811 14.6339C4.97811 16.022 3.86692 17.1863 2.48905 17.1863C1.11118 17.1863 0 16.022 0 14.6339C0 13.2458 1.11118 12.0815 2.48905 12.0815C3.86692 12.0815 4.97811 13.2458 4.97811 14.6339Z" fill="#221E1F"/>
</g>
<path fill-rule="evenodd" clip-rule="evenodd" d="M43.4703 9.4939C43.4703 10.882 42.3591 12.0463 40.9812 12.0463C39.6034 12.0463 38.4922 10.9268 38.4922 9.4939C38.4922 8.10577 39.6034 6.94153 40.9812 6.94153C42.3591 6.98631 43.4703 8.10577 43.4703 9.4939Z" fill="#14B04C"/>
<path d="M20.8462 13.3893C18.0015 14.6431 15.2458 16.4342 12.8901 18.7179C10.5344 21.0016 8.4898 23.6883 7.11193 26.6885C6.44522 28.1662 5.91185 29.7334 5.73406 31.3454C5.55627 32.9127 5.64516 34.5247 6.35632 35.9128L6.62301 36.4502L6.97858 36.9427L7.15637 37.1666L7.37861 37.3905L7.77864 37.8383C7.91198 37.9726 8.08977 38.107 8.22311 38.1965C8.4009 38.3309 8.53424 38.4652 8.71203 38.5548L9.2454 38.8682L9.51208 39.0473L9.77877 39.1817C11.29 39.8981 13.0234 40.2116 14.8013 40.3459C14.9347 40.3459 15.0236 40.4802 15.0236 40.5698C15.0236 40.7041 14.9347 40.7489 14.8013 40.7937C13.0234 40.928 11.1566 40.8385 9.37874 40.3011L9.02316 40.2116L8.71203 40.0772L8.00087 39.7638C7.77864 39.6742 7.5564 39.5399 7.37861 39.4055C7.15637 39.2712 6.93414 39.1817 6.75635 39.0473L6.17853 38.5995L5.8674 38.3756L5.60072 38.107L5.06735 37.5696L4.62287 36.9427L4.44508 36.6293C4.40064 36.5397 4.31174 36.4054 4.2673 36.3158L3.91172 35.6442C3.82282 35.4203 3.73393 35.1964 3.64503 34.9277C3.55614 34.7038 3.46724 34.4351 3.42279 34.2112C3.28945 33.6739 3.15611 33.1813 3.11166 32.6888C3.06722 32.4201 3.02277 32.1962 3.02277 31.9276L2.97832 31.1663C2.93387 29.1961 3.24501 27.2258 3.77837 25.3899C4.84511 21.6733 6.75635 18.2701 9.11206 15.2252C11.4678 12.1803 14.3568 9.49357 17.7793 7.38898C19.335 6.40386 21.424 6.89642 22.4018 8.46366C23.3797 10.0309 22.8907 12.1355 21.3351 13.1206C21.1573 13.255 20.9795 13.2997 20.8462 13.3893Z" fill="#221E1F"/>
<path d="M32.8899 26.1506C33.2899 23.0609 33.201 19.7473 32.4899 16.5232C31.7787 13.2992 30.5786 10.1647 28.7118 7.43321C27.7784 6.08986 26.7117 4.83607 25.4672 3.85094C24.2227 2.86582 22.8003 2.14936 21.2447 2.01503L20.6669 1.97025L20.089 2.01503H19.7779L19.5557 2.10458L18.9779 2.23892C18.8001 2.2837 18.6223 2.37326 18.4 2.46281C18.2223 2.55237 18 2.59715 17.8222 2.6867L17.2889 3.00015L17.0222 3.13449L16.7555 3.3136C15.3776 4.25395 14.1775 5.5973 13.1553 7.03021C13.0664 7.11977 12.933 7.16454 12.8441 7.07499C12.7552 7.03021 12.7108 6.89587 12.7552 6.80632C13.5997 5.19429 14.5776 3.67183 15.9554 2.37326L16.2221 2.14936L16.4888 1.92547L17.0666 1.47769C17.2444 1.34335 17.4667 1.20902 17.6889 1.11946C17.9111 0.985125 18.1334 0.895568 18.3556 0.761233L19.0668 0.447784L19.4223 0.313449L19.7779 0.223892L20.5335 0.0447784L21.2891 0L21.6891 0C21.8225 0 21.9558 0 22.0447 0L22.8003 0.0447784C23.067 0.0895568 23.2893 0.134335 23.5559 0.179114C23.8226 0.223892 24.0449 0.26867 24.2671 0.358227C24.756 0.492562 25.2449 0.626898 25.6894 0.85079C25.9117 0.940346 26.1339 1.0299 26.3561 1.16424L27.0228 1.52247C28.7563 2.50759 30.223 3.80616 31.512 5.19429C34.09 8.06011 36.0012 11.4185 37.3791 15.0455C38.7569 18.6726 39.5125 22.5235 39.557 26.5536C39.557 28.4343 38.0902 29.9567 36.2679 29.9567C34.4011 29.9567 32.8899 28.4791 32.8899 26.6431C32.8899 26.5088 32.8899 26.3297 32.8899 26.1506Z" fill="#14B04C"/>
<path d="M15.8227 30.1365C18.2228 32.1068 21.0675 33.7188 24.1788 34.7935C27.2457 35.8682 30.5792 36.4503 33.8239 36.3159C35.4684 36.2264 37.0685 35.9577 38.5353 35.4204C40.002 34.8383 41.3799 34.0322 42.2689 32.7785L42.6244 32.2859L42.8911 31.7486L43.0245 31.4799L43.1134 31.2112L43.2912 30.6291C43.3356 30.45 43.38 30.2261 43.4245 30.047C43.4689 29.8679 43.5134 29.644 43.5134 29.4649L43.5578 28.838V28.5245V28.2111C43.4689 26.5095 42.98 24.8079 42.3133 23.1959C42.2689 23.0615 42.3133 22.972 42.4467 22.8824C42.5355 22.8377 42.6689 22.8824 42.7133 22.972C43.6467 24.4945 44.4023 26.196 44.8024 28.0767L44.8913 28.435L44.9357 28.7932L44.9802 29.5096C45.0246 29.7335 44.9802 30.0022 44.9802 30.2261C44.9802 30.45 44.9802 30.7187 44.9357 30.9425L44.8024 31.659L44.7135 32.0172L44.5801 32.3755L44.3579 33.1367L44.0023 33.8084L43.8245 34.1666C43.7801 34.2561 43.6912 34.3905 43.6023 34.48L43.1578 35.1069C42.98 35.286 42.8467 35.4652 42.6689 35.689C42.4911 35.8682 42.3133 36.0921 42.1355 36.2264C41.7799 36.5398 41.3799 36.8981 40.9799 37.1667C40.7577 37.3011 40.5799 37.4802 40.3576 37.5697L39.7354 37.928C38.0019 38.8683 36.1351 39.4952 34.2683 39.8534C30.4903 40.5699 26.6234 40.4356 22.8898 39.7639C19.1118 39.0922 15.4226 37.7041 12.0002 35.6443C10.4001 34.7039 9.91118 32.6441 10.8446 31.0321C11.778 29.4201 13.8225 28.9275 15.4227 29.8679C15.556 29.9126 15.6893 30.047 15.8227 30.1365Z" fill="#E8292B"/>
</svg>
