<svg width="33" height="11" viewBox="0 0 33 11" fill="none" xmlns="http://www.w3.org/2000/svg">
<path fill-rule="evenodd" clip-rule="evenodd" d="M8.74568 10.6316H5.99936L3.93995 2.54373C3.8422 2.17169 3.63466 1.84279 3.32936 1.68777C2.56746 1.29821 1.7279 0.988172 0.812012 0.831807V0.520426H5.23612C5.84671 0.520426 6.30465 0.988172 6.38098 1.5314L7.44951 7.36543L10.1945 0.520426H12.8645L8.74568 10.6316ZM14.391 10.6316H11.7973L13.933 0.520426H16.5267L14.391 10.6316ZM19.8823 3.32152C19.9586 2.77694 20.4165 2.46555 20.9508 2.46555C21.7904 2.38737 22.7049 2.54374 23.4682 2.93195L23.9261 0.754978C23.1629 0.443596 22.3233 0.287231 21.5614 0.287231C19.0441 0.287231 17.2123 1.68777 17.2123 3.63155C17.2123 5.11028 18.5098 5.88671 19.4257 6.35445C20.4165 6.82085 20.7982 7.13223 20.7218 7.59863C20.7218 8.29823 19.9586 8.60961 19.1967 8.60961C18.2808 8.60961 17.3649 8.37641 16.5267 7.98685L16.0688 10.1652C16.9846 10.5534 17.9755 10.7098 18.8914 10.7098C21.7141 10.7866 23.4682 9.38739 23.4682 7.28725C23.4682 4.64253 19.8823 4.48751 19.8823 3.32152ZM32.5453 10.6316L30.4859 0.520426H28.2739C27.8159 0.520426 27.358 0.831807 27.2053 1.29821L23.3918 10.6316H26.0618L26.5948 9.15419H29.8753L30.1806 10.6316H32.5453ZM28.6555 3.24334L29.4174 7.05406H27.2817L28.6555 3.24334Z" fill="#172B85"/>
</svg>
